<svg width="72" height="72" viewBox="0 0 72 72" fill="none" xmlns="http://www.w3.org/2000/svg">
<path d="M40.5 29.25C40.5 28.6533 40.7371 28.081 41.159 27.659C41.581 27.2371 42.1533 27 42.75 27H56.25C56.8467 27 57.419 27.2371 57.841 27.659C58.2629 28.081 58.5 28.6533 58.5 29.25C58.5 29.8467 58.2629 30.419 57.841 30.841C57.419 31.2629 56.8467 31.5 56.25 31.5H42.75C42.1533 31.5 41.581 31.2629 41.159 30.841C40.7371 30.419 40.5 29.8467 40.5 29.25ZM42.75 38.25C42.1533 38.25 41.581 38.4871 41.159 38.909C40.7371 39.331 40.5 39.9033 40.5 40.5C40.5 41.0967 40.7371 41.669 41.159 42.091C41.581 42.5129 42.1533 42.75 42.75 42.75H56.25C56.8467 42.75 57.419 42.5129 57.841 42.091C58.2629 41.669 58.5 41.0967 58.5 40.5C58.5 39.9033 58.2629 39.331 57.841 38.909C57.419 38.4871 56.8467 38.25 56.25 38.25H42.75ZM29.25 29.25C29.25 30.4435 28.7759 31.5881 27.932 32.432C27.0881 33.2759 25.9435 33.75 24.75 33.75C23.5565 33.75 22.4119 33.2759 21.568 32.432C20.7241 31.5881 20.25 30.4435 20.25 29.25C20.25 28.0565 20.7241 26.9119 21.568 26.068C22.4119 25.2241 23.5565 24.75 24.75 24.75C25.9435 24.75 27.0881 25.2241 27.932 26.068C28.7759 26.9119 29.25 28.0565 29.25 29.25V29.25ZM15.75 39.375C15.75 38.4799 16.1056 37.6215 16.7385 36.9885C17.3714 36.3556 18.2299 36 19.125 36H30.375C31.2701 36 32.1286 36.3556 32.7615 36.9885C33.3944 37.6215 33.75 38.4799 33.75 39.375C33.75 39.375 33.75 47.25 24.75 47.25C15.75 47.25 15.75 39.375 15.75 39.375ZM4.5 16.3125C4.5 14.3731 5.27042 12.5131 6.64178 11.1418C8.01314 9.77042 9.8731 9 11.8125 9H60.1875C62.1269 9 63.9869 9.77042 65.3582 11.1418C66.7296 12.5131 67.5 14.3731 67.5 16.3125V55.6875C67.5 56.6478 67.3109 57.5987 66.9434 58.4859C66.5759 59.3731 66.0372 60.1792 65.3582 60.8582C64.6792 61.5372 63.8731 62.0759 62.9859 62.4434C62.0987 62.8109 61.1478 63 60.1875 63H11.8125C10.8522 63 9.90132 62.8109 9.01413 62.4434C8.12693 62.0759 7.32081 61.5372 6.64178 60.8582C5.96275 60.1792 5.42412 59.3731 5.05663 58.4859C4.68914 57.5987 4.5 56.6478 4.5 55.6875V16.3125ZM11.8125 13.5C10.26 13.5 9 14.76 9 16.3125V55.6875C9 57.24 10.26 58.5 11.8125 58.5H60.1875C61.74 58.5 63 57.24 63 55.6875V16.3125C63 14.76 61.74 13.5 60.1875 13.5H11.8125Z" fill="#1D1D1D"/>
</svg>
