<svg xmlns="http://www.w3.org/2000/svg" fill="none" viewBox="0 0 72 72">
  <g fill="#1D1D1D" clip-path="url(#a)">
    <path d="M49 35.5555c0 3.5362-1.4048 6.9276-3.9053 9.4281-2.5005 2.5005-5.8919 3.9052-9.4281 3.9052-3.5362 0-6.9276-1.4047-9.4281-3.9052-2.5004-2.5005-3.9052-5.8919-3.9052-9.4281 0-3.5362 1.4048-6.9276 3.9052-9.4281 2.5005-2.5005 5.8919-3.9052 9.4281-3.9052 3.5362 0 6.9276 1.4047 9.4281 3.9052C47.5952 28.6279 49 32.0193 49 35.5555Z"/>
    <path d="M62.3333 62.2222V20l-20-20H17.8889c-2.3575 0-4.6184.936505-6.2854 2.6035-1.66703 1.66699-2.60353 3.92791-2.60353 6.28539V62.2222c0 2.3575.9365 4.6184 2.60353 6.2854 1.667 1.667 3.9279 2.6035 6.2854 2.6035h35.5555c2.3575 0 4.6184-.9365 6.2854-2.6035 1.667-1.667 2.6035-3.9279 2.6035-6.2854Zm-20-48.8889c0 1.7681.7024 3.4638 1.9526 4.7141C45.5362 19.2976 47.2319 20 49 20h8.8889v41.1333s-4.4445-7.8-22.2223-7.8c-17.7777 0-22.2222 7.8-22.2222 7.8V8.88889c0-1.17874.4683-2.3092 1.3018-3.1427.8335-.83349 1.9639-1.30175 3.1427-1.30175h24.4444v8.88886Z"/>
  </g>
  <defs>
    <clipPath id="a">
      <path fill="#fff" d="M0 0h71.1111v71.1111H0z" transform="translate(.111084)"/>
    </clipPath>
  </defs>
</svg>