<svg xmlns="http://www.w3.org/2000/svg" viewBox="0 0 517.41 123.56">
  <text fill="#00aeef" font-family="ZenKakuGothicAntique-Medium,Zen Kaku Gothic Antique" font-size="48" font-weight="500" transform="translate(181.41 58.42)">ベルエステート</text>
  <path fill="none" stroke="#00aeef" stroke-linecap="round" stroke-linejoin="round" stroke-width="3" d="m1.5 73 33-33C50.56 24 78 35.31 78 58v20.3a11.92 11.92 0 0 0 11.88 11.92h52.71A11.92 11.92 0 0 0 151 69.89L86.39 5a11.92 11.92 0 0 0-16.87 0Z"/>
  <path fill="#00aeef" stroke="#00aeef" stroke-miterlimit="10" d="M64.83 54.53a4.58 4.58 0 0 0 .81-1 4.49 4.49 0 0 0-4.92-6.69 4.53 4.53 0 0 0-2.77 2 3.65 3.65 0 0 0-.25.53C51.57 48 47.09 53.24 44 56.91c-1.37 1.6-2.66 3.12-3.46 3.33l-1.78.42c-3.95.94-6.56 1.56-7.64 3.36l-.22.35c-1.06 1.76-.25 4.41 2.28 7.47A40.61 40.61 0 0 0 43 80a7.37 7.37 0 0 0 3.2 4.09 7.24 7.24 0 0 0 3.79 1.06 7 7 0 0 0 1.77-.21 8.67 8.67 0 0 0 1-.33 20.56 20.56 0 0 0 5.94 1.1c2.14 0 3.65-.61 4.39-1.83l.21-.36c1.09-1.79.43-4.39-.57-8.32-.14-.57-.29-1.16-.44-1.78-.2-.8.55-2.66 1.34-4.61 1.6-4.08 3.89-9.72 1.2-14.28Zm-5.48-4.76a2.86 2.86 0 0 1 1.76-1.3 2.85 2.85 0 0 1 3.12 4.26 2.61 2.61 0 0 1-.35.47A11.82 11.82 0 0 0 61 50.86a12.31 12.31 0 0 0-1.77-.9 1.11 1.11 0 0 1 .12-.19ZM42.62 77.83a37.32 37.32 0 0 1-8.21-7c-2-2.41-2.79-4.5-2.14-5.58s2.87-1.34 5.94-.7a40 40 0 0 1 11.59 4.89q.95.59 1.86 1.2a7.31 7.31 0 0 0-9 7.19Zm8.7 5.5a5.71 5.71 0 1 1-2.72-11.1 5.78 5.78 0 0 1 1.4-.17 5.62 5.62 0 0 1 2.94.83 5.71 5.71 0 0 1-1.59 10.44ZM61.66 83c-.75 1.24-3.42 1.38-7 .43a7.15 7.15 0 0 0 1.6-1.85 7.32 7.32 0 0 0 .14-7.35 29.25 29.25 0 0 1 3.14 3.19c1.98 2.41 2.78 4.5 2.12 5.58Zm.42-14.83c-1 2.4-1.73 4.29-1.4 5.62.14.62.3 1.21.44 1.78s.31 1.26.46 1.85c-.24-.34-.51-.69-.8-1A41.28 41.28 0 0 0 50.64 68a41.06 41.06 0 0 0-12.09-5.11c-.45-.1-.88-.17-1.3-.23l1.86-.45c.57-.14 1.17-.27 1.79-.43 1.32-.33 2.64-1.89 4.31-3.85 3.7-4.35 8.29-9.77 15-5.72s4.01 10.67 1.87 15.96Z"/>
  <text fill="#00aeef" font-family="ZenKakuGothicAntique-Medium,Zen Kaku Gothic Antique" font-size="48" font-weight="500" transform="translate(181.41 110.02)">株式会社</text>
  <path fill="none" stroke="#00aeef" stroke-linecap="round" stroke-linejoin="round" stroke-width="3" d="M111.48 1.5v11.38M122.21 1.5v22.16M21.68 68.69v53.37h109.28v-21.99"/>
</svg>